<svg xmlns="http://www.w3.org/2000/svg" width="60" height="44" viewBox="0 0 60 44"><g><g><g><path fill="#fff" d="M2.36 42.63h55.787"/></g><g><g><path fill="none" stroke="#da1a32" stroke-linecap="round" stroke-linejoin="round" stroke-miterlimit="50" stroke-width="2.7" d="M2.36 42.63h55.787"/></g><g><path fill="none" stroke="#da1a32" stroke-linecap="round" stroke-linejoin="round" stroke-miterlimit="50" stroke-width="2.7" d="M7.17 42.626v0V1.35v0h46.17v41.276"/></g><g><path fill="none" stroke="#da1a32" stroke-linecap="round" stroke-linejoin="round" stroke-miterlimit="50" stroke-width="2.7" d="M23.55 41.85v0-11.33 0h6.68v11.33"/></g><g><path fill="none" stroke="#da1a32" stroke-linecap="round" stroke-linejoin="round" stroke-miterlimit="50" stroke-width="2.7" d="M30.28 41.85v0-11.33 0h6.68v11.33"/></g></g><g><path fill="#fff" d="M25.416 12.612V9.39"/></g><g><path fill="none" stroke="#e37c1d" stroke-linecap="round" stroke-linejoin="round" stroke-miterlimit="50" stroke-width="2.7" d="M25.416 12.612V9.39"/></g><g><path fill="#fff" d="M25.416 23.474V20.25"/></g><g><path fill="none" stroke="#e37c1d" stroke-linecap="round" stroke-linejoin="round" stroke-miterlimit="50" stroke-width="2.7" d="M25.416 23.474V20.25"/></g><g><path fill="#fff" d="M15.746 12.612V9.39"/></g><g><path fill="none" stroke="#e37c1d" stroke-linecap="round" stroke-linejoin="round" stroke-miterlimit="50" stroke-width="2.7" d="M15.746 12.612V9.39"/></g><g><path fill="#fff" d="M15.746 23.474V20.25"/></g><g><path fill="none" stroke="#e37c1d" stroke-linecap="round" stroke-linejoin="round" stroke-miterlimit="50" stroke-width="2.7" d="M15.746 23.474V20.25"/></g><g><path fill="#fff" d="M15.746 34.344V31.12"/></g><g><path fill="none" stroke="#e37c1d" stroke-linecap="round" stroke-linejoin="round" stroke-miterlimit="50" stroke-width="2.7" d="M15.746 34.344V31.12"/></g><g><path fill="#fff" d="M35.086 12.612V9.39"/></g><g><path fill="none" stroke="#e37c1d" stroke-linecap="round" stroke-linejoin="round" stroke-miterlimit="50" stroke-width="2.7" d="M35.086 12.612V9.39"/></g><g><path fill="#fff" d="M35.086 23.474V20.25"/></g><g><path fill="none" stroke="#e37c1d" stroke-linecap="round" stroke-linejoin="round" stroke-miterlimit="50" stroke-width="2.7" d="M35.086 23.474V20.25"/></g><g><path fill="#fff" d="M44.756 12.612V9.39"/></g><g><path fill="none" stroke="#e37c1d" stroke-linecap="round" stroke-linejoin="round" stroke-miterlimit="50" stroke-width="2.7" d="M44.756 12.612V9.39"/></g><g><path fill="#fff" d="M44.756 23.474V20.25"/></g><g><path fill="none" stroke="#e37c1d" stroke-linecap="round" stroke-linejoin="round" stroke-miterlimit="50" stroke-width="2.7" d="M44.756 23.474V20.25"/></g><g><path fill="#fff" d="M44.756 34.344V31.12"/></g><g><path fill="none" stroke="#e37c1d" stroke-linecap="round" stroke-linejoin="round" stroke-miterlimit="50" stroke-width="2.7" d="M44.756 34.344V31.12"/></g></g></g></svg>