<?xml version="1.0" encoding="UTF-8"?>
<svg width="57px" height="59px" viewBox="0 0 57 59" version="1.1" xmlns="http://www.w3.org/2000/svg" xmlns:xlink="http://www.w3.org/1999/xlink">
    <!-- Generator: Sketch 53.2 (72643) - https://sketchapp.com -->
    <title>Icoon Commercial Office</title>
    <desc>Created with Sketch.</desc>
    <g id="Symbols" stroke="none" stroke-width="1" fill="none" fill-rule="evenodd" stroke-linecap="round" stroke-linejoin="round">
        <g id="CS_Products-Copy-13" transform="translate(-295.000000, -54.000000)" stroke-width="2.5">
            <g id="Icoon-Commercial-Office" transform="translate(296.000000, 56.000000)">
                <g id="Group-9" stroke="#DA1A32">
                    <path d="M0.310177404,54.8631882 L54.1766947,54.8631882" id="Stroke-1"></path>
                    <polyline id="Stroke-3" points="4.89751634 54.8631882 4.89751634 0.182841414 37.7508497 0.182841414 37.7508497 54.8631882"></polyline>
                    <polyline id="Stroke-5" points="38.4806499 9.3052862 49.5895201 9.3052862 49.5895201 53.2854848"></polyline>
                    <polyline id="Stroke-7" points="18.2961942 54.1784798 18.2961942 44.2410488 24.3518431 44.2410488 24.3518431 54.1784798"></polyline>
                </g>
                <path d="M12,10 L12,7" id="Stroke-10" stroke="#E37C1D"></path>
                <path d="M21,10 L21,7" id="Stroke-11" stroke="#E37C1D"></path>
                <path d="M31,10 L31,7" id="Stroke-12" stroke="#E37C1D"></path>
                <path d="M12,19 L12,16" id="Stroke-13" stroke="#E37C1D"></path>
                <path d="M21,19 L21,16" id="Stroke-14" stroke="#E37C1D"></path>
                <path d="M31,19 L31,16" id="Stroke-15" stroke="#E37C1D"></path>
                <path d="M12,29 L12,26" id="Stroke-16" stroke="#E37C1D"></path>
                <path d="M21,29 L21,26" id="Stroke-17" stroke="#E37C1D"></path>
                <path d="M31,29 L31,26" id="Stroke-18" stroke="#E37C1D"></path>
                <path d="M12,38 L12,35" id="Stroke-19" stroke="#E37C1D"></path>
                <path d="M21,38 L21,35" id="Stroke-20" stroke="#E37C1D"></path>
                <path d="M31,38 L31,35" id="Stroke-21" stroke="#E37C1D"></path>
                <path d="M12,48 L12,45" id="Stroke-22" stroke="#E37C1D"></path>
                <path d="M31,48 L31,45" id="Stroke-23" stroke="#E37C1D"></path>
                <path d="M44,19 L44,16" id="Stroke-24" stroke="#E37C1D"></path>
                <path d="M44,29 L44,26" id="Stroke-25" stroke="#E37C1D"></path>
                <path d="M44,38 L44,35" id="Stroke-26" stroke="#E37C1D"></path>
                <path d="M44,48 L44,45" id="Stroke-27" stroke="#E37C1D"></path>
            </g>
        </g>
    </g>
</svg>